<?xml version="1.0" encoding="utf-8"?>
<!-- Generator: Adobe Illustrator 16.0.4, SVG Export Plug-In . SVG Version: 6.00 Build 0)  -->
<!DOCTYPE svg PUBLIC "-//W3C//DTD SVG 1.1//EN" "http://www.w3.org/Graphics/SVG/1.1/DTD/svg11.dtd">
<svg version="1.1" id="layer1" xmlns="http://www.w3.org/2000/svg" xmlns:xlink="http://www.w3.org/1999/xlink" x="0px" y="0px"
	 width="55.5px" height="56px" viewBox="0 0 55.5 56" enable-background="new 0 0 55.5 56" xml:space="preserve">
<path fill="#FFFFFF" stroke="#000000" d="M0.5,0.5h55v55h-55V0.5z"/>
<path d="M10.032,33.547c0.51,0.936,1.104,1.628,1.783,2.082c0.68,0.453,1.373,0.68,2.081,0.68c1.132,0,1.989-0.347,2.568-1.041
	c0.581-0.692,0.871-1.959,0.871-3.801v-17.96h6.241v18.47c0,1.328-0.176,2.59-0.53,3.775c-0.354,1.191-0.893,2.227-1.613,3.102
	c-0.722,0.875-1.642,1.565-2.76,2.078c-1.119,0.506-2.441,0.76-3.969,0.76c-2.124,0-3.901-0.414-5.329-1.237
	c-1.43-0.822-2.626-2.079-3.587-3.777l4.246-3.149L10.032,33.547L10.032,33.547z M31.771,33.421c0.99,0.849,2.088,1.544,3.289,2.081
	c1.203,0.531,2.385,0.807,3.545,0.807c1.303,0,2.271-0.238,2.908-0.726c0.639-0.487,0.955-1.132,0.955-1.954
	c0-0.426-0.093-0.796-0.275-1.105c-0.185-0.311-0.453-0.594-0.807-0.832c-0.354-0.237-0.779-0.469-1.273-0.682l-1.635-0.697
	l-3.608-1.53c-0.708-0.282-1.396-0.654-2.06-1.105c-0.666-0.451-1.258-0.981-1.783-1.592c-0.524-0.61-0.942-1.317-1.252-2.123
	c-0.312-0.805-0.467-1.725-0.467-2.742c0-1.133,0.238-2.203,0.721-3.211c0.48-1.008,1.16-1.883,2.039-2.635
	c0.877-0.752,1.916-1.345,3.119-1.77c1.205-0.424,2.526-0.638,3.972-0.638c1.612,0,3.206,0.31,4.774,0.929
	c1.571,0.619,2.951,1.521,4.142,2.715l-3.185,3.945c-0.906-0.708-1.812-1.256-2.719-1.636c-0.904-0.38-1.908-0.575-3.014-0.575
	c-1.076,0-1.934,0.222-2.568,0.655c-0.637,0.442-0.956,1.053-0.956,1.849c0,0.425,0.106,0.788,0.319,1.08
	c0.212,0.3,0.51,0.566,0.893,0.805c0.383,0.248,0.826,0.468,1.336,0.681c0.51,0.212,1.062,0.451,1.658,0.699l3.564,1.441
	c1.699,0.682,3.035,1.611,4.013,2.805c0.978,1.186,1.465,2.759,1.465,4.713c0,1.16-0.235,2.257-0.7,3.291
	c-0.468,1.035-1.146,1.938-2.037,2.716c-0.895,0.778-1.992,1.396-3.291,1.864c-1.305,0.47-2.775,0.699-4.416,0.699
	c-1.812,0-3.615-0.328-5.412-1c-1.797-0.664-3.403-1.664-4.819-2.998l3.565-4.289V33.421L31.771,33.421z"/>
</svg>
